<svg xmlns:dc="http://purl.org/dc/elements/1.1/" xmlns:cc="http://creativecommons.org/ns#" xmlns:rdf="http://www.w3.org/1999/02/22-rdf-syntax-ns#" xmlns:svg="http://www.w3.org/2000/svg" xmlns="http://www.w3.org/2000/svg" xmlns:sodipodi="http://sodipodi.sourceforge.net/DTD/sodipodi-0.dtd" xmlns:inkscape="http://www.inkscape.org/namespaces/inkscape" width="1122.5197" height="793.70081" viewBox="0 0 297 210" version="1.1" id="svg4707" inkscape:version="0.92.1 r15371" sodipodi:docname="Iman_hassaanahmed - FO7DA446EC23.svg">    <g xmlns="http://www.w3.org/2000/svg" id="g4529" xmlns:inkscape="http://www.inkscape.org/namespaces/inkscape" inkscape:export-xdpi="1000" inkscape:export-ydpi="1000" transform="matrix(1.0546977,0,0,1.0546977,86.549405,-269.62261)">        <rect y="352.84818" x="50.931061" height="69.937996" width="66.260101" id="rect4437" style="opacity:1;fill:none;fill-opacity:1;fill-rule:evenodd;stroke:none;stroke-width:0.12080838"/>        <g transform="matrix(1.2204934,0,0,1.2204934,-18.53492,-85.51113)" id="g4513">            <g id="g4465" transform="matrix(1.5432743,0,0,1.5432743,7.8399739,29.039958)">                <path id="path4443" d="m 36.26704,225.49697 v 14.98875 l 12.728424,7.34322 v -14.98875 z" style="opacity:1;fill:#0b9081;fill-opacity:1;fill-rule:evenodd;stroke:none;stroke-width:0;stroke-miterlimit:4;stroke-dasharray:none;stroke-opacity:1;paint-order:stroke fill markers" inkscape:connector-curvature="0"/>                <path id="path4445" d="m 62.511434,225.49697 -5.970178,3.44424 v 7.03936 l 5.970178,-3.44682 z" style="opacity:1;fill:#0ab5a2;fill-opacity:1;fill-rule:evenodd;stroke:none;stroke-width:0;stroke-miterlimit:4;stroke-dasharray:none;stroke-opacity:1;paint-order:stroke fill markers" inkscape:connector-curvature="0"/>                <path id="path4447" d="m 55.753708,229.39544 -5.970696,3.44475 v 7.04247 l 5.970696,-3.44734 z" style="opacity:1;fill:#0ab5a2;fill-opacity:1;fill-rule:evenodd;stroke:none;stroke-width:0;stroke-miterlimit:4;stroke-dasharray:none;stroke-opacity:1;paint-order:stroke fill markers" inkscape:connector-curvature="0"/>                <path id="path4449" d="m 62.511434,233.44326 -5.970178,3.44682 v 7.03988 l 5.970178,-3.44424 z" style="opacity:1;fill:#0ab5a2;fill-opacity:1;fill-rule:evenodd;stroke:none;stroke-width:0;stroke-miterlimit:4;stroke-dasharray:none;stroke-opacity:1;paint-order:stroke fill markers" inkscape:connector-curvature="0"/>                <path id="path4451" d="m 55.753708,237.34483 -5.970696,3.44733 v 7.03678 l 5.970696,-3.44475 z" style="opacity:1;fill:#0ab5a2;fill-opacity:1;fill-rule:evenodd;stroke:none;stroke-width:0;stroke-miterlimit:4;stroke-dasharray:none;stroke-opacity:1;paint-order:stroke fill markers" inkscape:connector-curvature="0"/>                <path inkscape:connector-curvature="0" id="path4453" d="m 62.511434,224.7739 -5.94531,-3.44474 -6.2317,3.52324 6.086866,3.43458 z" style="opacity:1;fill:#0ab5a2;fill-opacity:1;fill-rule:evenodd;stroke:none;stroke-width:0;stroke-miterlimit:4;stroke-dasharray:none;stroke-opacity:1;paint-order:stroke fill markers"/>                <path transform="matrix(0.26458333,0,0,0.26458333,0,87)" id="path4455" d="m 186.66797,491.81836 -23.57227,13.60937 24.07422,13.58789 23.57813,-13.30664 z m -26.61524,15.33984 -22.98046,13.29492 23.54687,13.56641 23.48242,-13.26953 z m 27.11719,15.32618 -23.53711,13.29492 23.03516,13.28711 23.48047,-13.53907 z" style="opacity:1;fill:#0ab5a2;fill-opacity:1;fill-rule:evenodd;stroke:none;stroke-width:0;stroke-miterlimit:4;stroke-dasharray:none;stroke-opacity:1;paint-order:stroke fill markers" inkscape:connector-curvature="0"/>                <g transform="matrix(0.7474859,0,0,0.7474859,127.50119,38.831189)" id="g4461">                    <path style="opacity:1;fill:#ffffff;fill-opacity:1;fill-rule:evenodd;stroke:none;stroke-width:0;stroke-miterlimit:4;stroke-dasharray:none;stroke-opacity:1;paint-order:stroke fill markers" d="m -115.32296,258.10357 3.58744,2.05052 v 11.06808 l -3.58744,-2.01745 z" id="path4457" inkscape:connector-curvature="0" xmlns:sodipodi="http://sodipodi.sourceforge.net/DTD/sodipodi-0.dtd" sodipodi:nodetypes="ccccc"/>                    <path xmlns:sodipodi="http://sodipodi.sourceforge.net/DTD/sodipodi-0.dtd" sodipodi:nodetypes="ccccc" inkscape:connector-curvature="0" id="path4459" d="m -108.74255,269.48862 0.0179,-4.13207 -9.58525,-5.53405 -0.0465,4.11555 z" style="opacity:1;fill:#ffffff;fill-opacity:1;fill-rule:evenodd;stroke:none;stroke-width:0;stroke-miterlimit:4;stroke-dasharray:none;stroke-opacity:1;paint-order:stroke fill markers"/>                </g>                <path transform="matrix(0.26458333,0,0,0.26458333,0,87)" id="path4463" d="m 186.66797,491.81836 -23.57227,13.60937 23.57227,13.30469 z m -26.5918,15.35352 -23.0039,13.28124 23.54687,13.56641 23.48242,-13.26953 z m 26.5918,15.5957 -23.0332,13.00976 23.0332,13.28907 z" style="fill:#0b9081;fill-opacity:1;stroke:none;stroke-width:0.99999994px;stroke-linecap:butt;stroke-linejoin:miter;stroke-opacity:1" inkscape:connector-curvature="0"/>            </g>        </g>    </g></svg>